<svg width="132" height="18" viewBox="0 0 132 18" fill="none" xmlns="http://www.w3.org/2000/svg">
<path d="M0.648 17.04C0.472 17.04 0.32 16.976 0.192 16.848C0.064 16.72 0 16.568 0 16.392V0.888C0 0.712 0.064 0.56 0.192 0.432C0.32 0.304 0.472 0.24 0.648 0.24H8.616C10.888 0.24 12.56 0.656 13.632 1.488C14.72 2.32 15.264 3.584 15.264 5.28C15.264 5.968 15.064 6.584 14.664 7.128C14.264 7.656 13.824 8.04 13.344 8.28C13.984 8.536 14.52 8.992 14.952 9.648C15.4 10.288 15.624 10.992 15.624 11.76C15.624 13.536 15.048 14.864 13.896 15.744C12.744 16.608 11.064 17.04 8.856 17.04H0.648ZM8.016 6.552C8.336 6.552 8.576 6.448 8.736 6.24C8.912 6.016 9 5.76 9 5.472C9 5.184 8.912 4.928 8.736 4.704C8.576 4.48 8.336 4.368 8.016 4.368H6V6.552H8.016ZM8.232 12.912C8.6 12.912 8.872 12.792 9.048 12.552C9.24 12.312 9.336 12.04 9.336 11.736C9.336 11.432 9.232 11.16 9.024 10.92C8.832 10.68 8.568 10.56 8.232 10.56H6V12.912H8.232Z" fill="black"/>
<path d="M24.009 17.28C19.609 17.28 17.289 15.496 17.049 11.928C17.033 11.688 17.025 11.312 17.025 10.8C17.025 10.288 17.033 9.912 17.049 9.672C17.161 7.928 17.825 6.6 19.041 5.688C20.257 4.776 21.913 4.32 24.009 4.32C26.105 4.32 27.761 4.776 28.977 5.688C30.193 6.6 30.857 7.928 30.969 9.672C31.001 10.152 31.017 10.528 31.017 10.8C31.017 11.072 31.001 11.448 30.969 11.928C30.729 15.496 28.409 17.28 24.009 17.28ZM24.009 13.44C24.441 13.44 24.721 13.328 24.849 13.104C24.977 12.864 25.057 12.432 25.089 11.808C25.105 11.648 25.113 11.312 25.113 10.8C25.113 10.288 25.105 9.952 25.089 9.792C25.041 9.184 24.953 8.76 24.825 8.52C24.697 8.28 24.425 8.16 24.009 8.16C23.593 8.16 23.321 8.28 23.193 8.52C23.065 8.76 22.977 9.184 22.929 9.792L22.905 10.8L22.929 11.808C22.961 12.432 23.041 12.864 23.169 13.104C23.297 13.328 23.577 13.44 24.009 13.44Z" fill="black"/>
<path d="M39.4074 17.28C35.0074 17.28 32.6874 15.496 32.4474 11.928C32.4314 11.688 32.4234 11.312 32.4234 10.8C32.4234 10.288 32.4314 9.912 32.4474 9.672C32.5594 7.928 33.2234 6.6 34.4394 5.688C35.6554 4.776 37.3114 4.32 39.4074 4.32C41.5034 4.32 43.1594 4.776 44.3754 5.688C45.5914 6.6 46.2554 7.928 46.3674 9.672C46.3994 10.152 46.4154 10.528 46.4154 10.8C46.4154 11.072 46.3994 11.448 46.3674 11.928C46.1274 15.496 43.8074 17.28 39.4074 17.28ZM39.4074 13.44C39.8394 13.44 40.1194 13.328 40.2474 13.104C40.3754 12.864 40.4554 12.432 40.4874 11.808C40.5034 11.648 40.5114 11.312 40.5114 10.8C40.5114 10.288 40.5034 9.952 40.4874 9.792C40.4394 9.184 40.3514 8.76 40.2234 8.52C40.0954 8.28 39.8234 8.16 39.4074 8.16C38.9914 8.16 38.7194 8.28 38.5914 8.52C38.4634 8.76 38.3754 9.184 38.3274 9.792L38.3034 10.8L38.3274 11.808C38.3594 12.432 38.4394 12.864 38.5674 13.104C38.6954 13.328 38.9754 13.44 39.4074 13.44Z" fill="black"/>
<path d="M48.8299 17.04C48.6539 17.04 48.5019 16.976 48.3739 16.848C48.2459 16.72 48.1819 16.568 48.1819 16.392V0.648C48.1819 0.472001 48.2459 0.320001 48.3739 0.192C48.5019 0.0640001 48.6539 0 48.8299 0H53.0299C53.2059 0 53.3579 0.0640001 53.4859 0.192C53.6139 0.320001 53.6779 0.472001 53.6779 0.648V8.424L55.7899 4.968C55.9499 4.696 56.1819 4.56 56.4859 4.56H61.3339C61.4939 4.56 61.6299 4.616 61.7419 4.728C61.8539 4.84 61.9099 4.976 61.9099 5.136C61.9099 5.248 61.8699 5.368 61.7899 5.496L58.5019 10.176L62.3899 16.152C62.4539 16.248 62.4859 16.352 62.4859 16.464C62.4859 16.624 62.4299 16.76 62.3179 16.872C62.2059 16.984 62.0699 17.04 61.9099 17.04H56.8699C56.5499 17.04 56.3019 16.904 56.1259 16.632L53.6779 12.552V16.392C53.6779 16.568 53.6139 16.72 53.4859 16.848C53.3579 16.976 53.2059 17.04 53.0299 17.04H48.8299Z" fill="black"/>
<path d="M66.2477 17.04C65.9437 17.04 65.6877 16.952 65.4797 16.776C65.2877 16.584 65.1757 16.368 65.1437 16.128L62.9357 0.840001V0.768C62.9357 0.624 62.9837 0.504 63.0797 0.408C63.1917 0.296 63.3197 0.24 63.4637 0.24H67.9277C68.2157 0.24 68.4237 0.288 68.5517 0.384001C68.6957 0.48 68.7757 0.648 68.7917 0.888L69.6077 7.656L70.5917 4.656C70.7517 4.192 71.0237 3.96 71.4077 3.96H73.8557C74.2397 3.96 74.5117 4.192 74.6717 4.656L75.6557 7.632L76.4717 0.888C76.4877 0.648 76.5597 0.48 76.6877 0.384001C76.8317 0.288 77.0477 0.24 77.3357 0.24H81.7997C81.9437 0.24 82.0637 0.296 82.1597 0.408C82.2717 0.504 82.3277 0.624 82.3277 0.768V0.840001L80.1197 16.128C80.0877 16.368 79.9677 16.584 79.7597 16.776C79.5677 16.952 79.3197 17.04 79.0157 17.04H75.5837C75.2957 17.04 75.0717 16.968 74.9117 16.824C74.7677 16.68 74.6637 16.536 74.5997 16.392L72.6317 11.472L70.6637 16.392C70.5997 16.536 70.4877 16.68 70.3277 16.824C70.1837 16.968 69.9677 17.04 69.6797 17.04H66.2477Z" fill="black"/>
<path d="M99.6658 17.04C99.4898 17.04 99.3378 16.976 99.2098 16.848C99.0818 16.72 99.0178 16.568 99.0178 16.392V5.208C99.0178 5.032 99.0818 4.88 99.2098 4.752C99.3378 4.624 99.4898 4.56 99.6658 4.56H103.866C104.042 4.56 104.194 4.624 104.322 4.752C104.45 4.88 104.514 5.032 104.514 5.208V6.048C105.042 5.584 105.626 5.224 106.266 4.968C106.906 4.696 107.57 4.56 108.258 4.56H109.41C109.586 4.56 109.738 4.624 109.866 4.752C109.994 4.88 110.058 5.032 110.058 5.208V8.952C110.058 9.128 109.994 9.28 109.866 9.408C109.738 9.536 109.586 9.6 109.41 9.6H106.314C105.354 9.6 104.874 10.08 104.874 11.04V16.392C104.874 16.568 104.81 16.72 104.682 16.848C104.554 16.976 104.402 17.04 104.226 17.04H99.6658Z" fill="black"/>
<path d="M112.088 17.04C111.912 17.04 111.76 16.976 111.632 16.848C111.504 16.72 111.44 16.568 111.44 16.392V5.208C111.44 5.032 111.504 4.88 111.632 4.752C111.76 4.624 111.912 4.56 112.088 4.56H116.048C116.224 4.56 116.376 4.624 116.504 4.752C116.632 4.88 116.696 5.032 116.696 5.208V6C117.032 5.552 117.52 5.16 118.16 4.824C118.8 4.488 119.52 4.32 120.32 4.32C122.032 4.32 123.2 4.976 123.824 6.288C124.208 5.728 124.736 5.264 125.408 4.896C126.08 4.512 126.776 4.32 127.496 4.32C128.792 4.32 129.848 4.768 130.664 5.664C131.496 6.544 131.912 7.88 131.912 9.672V16.392C131.912 16.568 131.848 16.72 131.72 16.848C131.592 16.976 131.44 17.04 131.264 17.04H127.04C126.864 17.04 126.712 16.976 126.584 16.848C126.456 16.72 126.392 16.568 126.392 16.392V9.792C126.392 9.408 126.304 9.12 126.128 8.928C125.968 8.72 125.736 8.616 125.432 8.616C125.128 8.616 124.896 8.72 124.736 8.928C124.576 9.12 124.496 9.408 124.496 9.792V16.392C124.496 16.568 124.432 16.72 124.304 16.848C124.176 16.976 124.024 17.04 123.848 17.04H119.624C119.448 17.04 119.296 16.976 119.168 16.848C119.04 16.72 118.976 16.568 118.976 16.392V9.792C118.976 9.408 118.888 9.12 118.712 8.928C118.552 8.72 118.32 8.616 118.016 8.616C117.712 8.616 117.472 8.72 117.296 8.928C117.136 9.136 117.056 9.424 117.056 9.792V16.392C117.056 16.568 116.992 16.72 116.864 16.848C116.736 16.976 116.584 17.04 116.408 17.04H112.088Z" fill="black"/>
<circle cx="90.18" cy="6.54001" r="6.5" fill="#FF9D9D"/>
<rect x="83.68" y="6.04001" width="13" height="11" fill="#FF9D9D"/>
<circle cx="86.68" cy="7.04001" r="1" fill="black"/>
<circle cx="93.68" cy="7.04001" r="1" fill="black"/>
</svg>
